<svg viewBox="0 0 32 33" fill="none" xmlns="http://www.w3.org/2000/svg">
<path opacity="0.2" d="M26.9841 12.5183C28.0726 15.509 27.9285 18.8095 26.5834 21.694C25.2384 24.5784 22.8027 26.8103 19.812 27.8988L17.4179 21.321C18.664 20.8674 19.6789 19.9375 20.2393 18.7356C20.7997 17.5338 20.8598 16.1585 20.4062 14.9124C19.9527 13.6663 19.0227 12.6514 17.8208 12.091C16.619 11.5306 15.2438 11.4705 13.9977 11.9241L11.6035 5.34622C14.5942 4.25771 17.8948 4.40182 20.7792 5.74684C23.6636 7.09186 25.8956 9.52763 26.9841 12.5183Z" fill="#CECBDE"/>
<path d="M11.2615 4.40655C11.0123 4.49726 10.8093 4.68326 10.6972 4.92363C10.5852 5.164 10.5732 5.43905 10.6639 5.68827L13.058 12.2661C13.1487 12.5153 13.3347 12.7183 13.5751 12.8304C13.8154 12.9425 14.0905 12.9545 14.3397 12.8638C15.1672 12.5628 16.0708 12.5433 16.9105 12.8082C17.7502 13.0732 18.479 13.6078 18.9839 14.3291C19.4889 15.0505 19.7417 15.9182 19.7031 16.7979C19.6646 17.6776 19.3369 18.5199 18.7708 19.1944C18.2048 19.8688 17.432 20.3376 16.5724 20.5281C15.7127 20.7186 14.8143 20.6202 14.0163 20.248C13.2183 19.8758 12.5654 19.2508 12.1589 18.4698C11.7523 17.6887 11.6148 16.7954 11.7677 15.9283C11.7905 15.7989 11.7877 15.6663 11.7592 15.5381C11.7308 15.4098 11.6774 15.2885 11.602 15.1809C11.5267 15.0733 11.4308 14.9816 11.3201 14.911C11.2093 14.8405 11.0856 14.7925 10.9563 14.7697L4.06232 13.5543C3.93296 13.5314 3.80037 13.5343 3.67213 13.5628C3.54389 13.5912 3.42251 13.6446 3.31492 13.72C3.20733 13.7953 3.11564 13.8911 3.04508 14.0019C2.97453 14.1127 2.9265 14.2363 2.90373 14.3657C2.4068 17.1839 2.85366 20.0873 4.17499 22.6257C5.49632 25.164 7.61829 27.1955 10.2118 28.405C12.8053 29.6144 15.7255 29.9344 18.5193 29.3151C21.3132 28.6959 23.8247 27.1721 25.6643 24.98C27.5039 22.788 28.5688 20.0502 28.6938 17.1912C28.8189 14.3323 27.9971 11.512 26.3559 9.16766C24.7148 6.82336 22.3459 5.08608 19.6168 4.22525C16.8877 3.36442 13.9508 3.42815 11.2615 4.40655ZM4.74387 15.7046L9.70635 16.5801C9.70205 17.2943 9.82507 18.0036 10.0696 18.6747C10.1351 18.8544 10.2073 19.0236 10.2887 19.1962L6.16282 22.092C5.05408 20.1556 4.55929 17.9283 4.74387 15.7046ZM7.30792 23.7251L11.4426 20.8314C12.1295 21.5269 12.9755 22.0444 13.9075 22.3391C14.8395 22.6339 15.8293 22.6969 16.7912 22.5229L18.5145 27.2577C16.5035 27.7855 14.3843 27.7338 12.4014 27.1088C10.4185 26.4837 8.65273 25.3107 7.30792 23.7251ZM20.3939 26.5737L18.6705 21.8388C19.9028 21.1382 20.8472 20.024 21.3364 18.6937C21.8256 17.3633 21.828 15.9027 21.3432 14.5708C20.8584 13.2388 19.9177 12.1215 18.6878 11.4168C17.4579 10.7122 16.0183 10.4657 14.624 10.7211L12.9007 5.98621C15.554 5.28617 18.3732 5.60315 20.8048 6.87492C23.2364 8.14669 25.1049 10.2814 26.0434 12.86C26.982 15.4387 26.9228 18.275 25.8775 20.8122C24.8323 23.3495 22.8764 25.4044 20.3939 26.5737Z" fill="#706D7E"/>
</svg>
