<svg  viewBox="0 0 28 28" fill="none" xmlns="http://www.w3.org/2000/svg">
            <path opacity="0.5" d="M23.1531 10.5487C24.0602 13.041 23.9401 15.7915 22.8193 18.1951C21.6984 20.5988 19.6686 22.4588 17.1764 23.3659L15.1813 17.8843C16.2197 17.5064 17.0655 16.7314 17.5325 15.7299C17.9995 14.7283 18.0495 13.5823 17.6716 12.5439C17.2936 11.5054 16.5186 10.6597 15.5171 10.1927C14.5156 9.72564 13.3695 9.67561 12.3311 10.0536L10.336 4.57202C12.8282 3.66493 15.5787 3.78502 17.9824 4.90587C20.3861 6.02672 22.246 8.05653 23.1531 10.5487Z" fill="#9E9BAD"/>
            <path d="M10.051 3.78899C9.84327 3.86458 9.67412 4.01958 9.58072 4.21989C9.48731 4.42019 9.4773 4.6494 9.55289 4.85708L11.548 10.3386C11.6236 10.5463 11.7786 10.7155 11.9789 10.8089C12.1792 10.9023 12.4084 10.9123 12.6161 10.8367C13.3057 10.5859 14.0587 10.5696 14.7584 10.7904C15.4582 11.0112 16.0655 11.4567 16.4863 12.0578C16.9071 12.6589 17.1177 13.3821 17.0856 14.1151C17.0535 14.8482 16.7804 15.5501 16.3087 16.1122C15.837 16.6742 15.193 17.0649 14.4767 17.2236C13.7603 17.3824 13.0116 17.3003 12.3466 16.9902C11.6816 16.6801 11.1375 16.1592 10.7987 15.5083C10.4599 14.8575 10.3454 14.113 10.4728 13.3904C10.4918 13.2826 10.4894 13.1721 10.4657 13.0653C10.442 12.9584 10.3975 12.8573 10.3347 12.7676C10.2719 12.6779 10.192 12.6015 10.0997 12.5427C10.0074 12.4839 9.90438 12.4439 9.79657 12.4249L4.05161 11.4121C3.94381 11.3931 3.83332 11.3955 3.72645 11.4192C3.61959 11.4429 3.51843 11.4874 3.42877 11.5502C3.33912 11.613 3.26271 11.6928 3.20391 11.7851C3.14512 11.8775 3.10509 11.9805 3.08611 12.0883C2.67201 14.4368 3.04439 16.8563 4.1455 18.9716C5.24661 21.0869 7.01492 22.7798 9.17619 23.7877C11.3375 24.7956 13.7709 25.0622 16.0991 24.5461C18.4273 24.0301 20.5202 22.7602 22.0532 20.9335C23.5862 19.1068 24.4736 16.8253 24.5779 14.4429C24.6821 12.0604 23.9972 9.71017 22.6296 7.75658C21.262 5.80299 19.2879 4.35526 17.0137 3.6379C14.7394 2.92055 12.292 2.97365 10.051 3.78899ZM4.61957 13.204L8.75497 13.9336C8.75138 14.5288 8.8539 15.1199 9.05771 15.6791C9.11222 15.8289 9.17242 15.9699 9.24028 16.1137L5.80202 18.5268C4.87808 16.9132 4.46575 15.0571 4.61957 13.204ZM6.75628 19.8878L10.2018 17.4764C10.7742 18.0559 11.4793 18.4872 12.2559 18.7328C13.0326 18.9784 13.8574 19.031 14.659 18.8859L16.0951 22.8316C14.4193 23.2714 12.6532 23.2284 11.0008 22.7075C9.3484 22.1866 7.87695 21.2091 6.75628 19.8878ZM17.6613 22.2616L16.2251 18.3159C17.252 17.7321 18.039 16.8036 18.4467 15.6949C18.8543 14.5863 18.8564 13.3691 18.4524 12.2592C18.0484 11.1492 17.2644 10.2181 16.2395 9.63088C15.2146 9.04367 14.0149 8.83827 12.853 9.0511L11.4169 5.10537C13.628 4.522 15.9773 4.78615 18.0037 5.84596C20.03 6.90577 21.5871 8.6847 22.3692 10.8336C23.1513 12.9824 23.102 15.346 22.231 17.4604C21.3599 19.5748 19.73 21.2872 17.6613 22.2616Z" fill="#252836"/>
            </svg>
