<svg viewBox="0 0 28 28" fill="none" xmlns="http://www.w3.org/2000/svg">
<g clip-path="url(#clip0_635_912)">
<path opacity="0.2" d="M20.5881 3.50107L26.0035 18.3795L22.3011 17.9535L19.7388 20.6597L16.0365 20.2336L13.4742 22.9398L9.77189 22.5137L7.20961 25.2199L1.79429 10.3415C1.7187 10.1338 1.72871 9.90458 1.82212 9.70427C1.91552 9.50397 2.08467 9.34897 2.29235 9.27338L19.5201 3.00301C19.7277 2.92742 19.9569 2.93743 20.1572 3.03083C20.3576 3.12424 20.5126 3.29339 20.5881 3.50107Z" fill="#CECBDE"/>
<path d="M7.41976 13.6149C7.34417 13.4072 7.35418 13.178 7.44758 12.9777C7.54098 12.7773 7.71013 12.6223 7.91782 12.5468L17.3147 9.12656C17.5224 9.05096 17.7516 9.06097 17.9519 9.15438C18.1523 9.24778 18.3072 9.41693 18.3828 9.62462C18.4584 9.8323 18.4484 10.0615 18.355 10.2618C18.2616 10.4621 18.0925 10.6171 17.8848 10.6927L8.48785 14.1129C8.28017 14.1885 8.05096 14.1785 7.85065 14.0851C7.65035 13.9917 7.49535 13.8225 7.41976 13.6149ZM9.62792 17.2452L19.0248 13.825C19.2325 13.7494 19.4017 13.5944 19.4951 13.3941C19.5885 13.1938 19.5985 12.9646 19.5229 12.7569C19.4473 12.5492 19.2923 12.3801 19.092 12.2867C18.8917 12.1933 18.6625 12.1833 18.4548 12.2589L9.05789 15.6791C8.8502 15.7547 8.68105 15.9097 8.58765 16.11C8.49424 16.3103 8.48424 16.5395 8.55983 16.7472C8.63542 16.9548 8.79042 17.124 8.99072 17.2174C9.19103 17.3108 9.42024 17.3208 9.62792 17.2452ZM21.3712 3.21605L26.7865 18.0945C26.835 18.228 26.8486 18.3717 26.826 18.5119C26.8033 18.6521 26.7453 18.7842 26.6572 18.8957C26.5692 19.0071 26.4541 19.0942 26.3229 19.1487C26.1918 19.2032 26.0488 19.2232 25.9078 19.207L22.6196 18.8285L20.344 21.232C20.255 21.326 20.1453 21.3981 20.0237 21.4423C19.902 21.4866 19.7717 21.5019 19.6431 21.4871L16.355 21.1087L14.0794 23.5121C13.9904 23.6062 13.8807 23.6782 13.7591 23.7225C13.6374 23.7667 13.5071 23.7821 13.3785 23.7672L10.0904 23.3888L7.81475 25.7923C7.71713 25.8954 7.59477 25.9719 7.45927 26.0145C7.32377 26.0571 7.17963 26.0643 7.04055 26.0356C6.90147 26.0068 6.77205 25.9429 6.66458 25.8501C6.55711 25.7572 6.47516 25.6384 6.42651 25.505L1.0112 10.6265C0.860013 10.2111 0.880028 9.7527 1.06684 9.35209C1.25365 8.95148 1.59195 8.64148 2.00732 8.4903L19.235 2.21993C19.6504 2.06875 20.1088 2.08876 20.5094 2.27557C20.91 2.46238 21.22 2.80068 21.3712 3.21605ZM19.805 3.78609L2.57735 10.0565L7.53165 23.6683L9.16635 21.9404C9.25533 21.8464 9.36499 21.7744 9.48665 21.7301C9.6083 21.6858 9.7386 21.6705 9.8672 21.6853L13.1557 22.0647L15.431 19.6603C15.5199 19.5662 15.6296 19.4942 15.7513 19.4499C15.8729 19.4057 16.0032 19.3903 16.1318 19.4052L19.4203 19.7846L21.6956 17.3801C21.7846 17.2861 21.8942 17.2141 22.0159 17.1698C22.1375 17.1255 22.2678 17.1102 22.3964 17.125L24.7594 17.3979L19.805 3.78609Z" fill="#706D7E"/>
</g>
<defs>
<clipPath id="clip0_635_912">
<rect width="26.6667" height="26.6667" fill="white" transform="translate(0.666748 0.666687)"/>
</clipPath>
</defs>
</svg>
