<svg  viewBox="0 0 28 28" fill="none" xmlns="http://www.w3.org/2000/svg">
<path opacity="0.2" d="M21.4016 10.652L22.2959 7.99856C21.7712 7.2464 21.1487 6.56748 20.4448 5.9797L17.7244 6.6373C17.43 6.47806 17.1264 6.33649 16.8152 6.21332L15.5699 3.7057C14.6673 3.54717 13.7477 3.50914 12.8351 3.59259L11.377 5.98229C11.0559 6.07807 10.7408 6.19276 10.4334 6.32573L7.77995 5.4314C7.03074 5.95572 6.35448 6.57723 5.76893 7.27963L6.42652 10C6.26729 10.2944 6.12571 10.598 6.00254 10.9092L3.49493 12.1545C3.3364 13.0571 3.29836 13.9768 3.38182 14.8894L5.77151 16.3475C5.8673 16.6685 5.98198 16.9836 6.11496 17.2911L5.22062 19.9445C5.74527 20.6966 6.36778 21.3756 7.0717 21.9633L9.79211 21.3058C10.0865 21.465 10.3901 21.6066 10.7013 21.7297L11.9466 24.2373C12.8492 24.3959 13.7688 24.4339 14.6814 24.3505L16.1396 21.9608C16.4606 21.865 16.7757 21.7503 17.0832 21.6173L19.7366 22.5116C20.4887 21.987 21.1676 21.3645 21.7554 20.6606L21.0978 17.9402C21.2571 17.6458 21.3986 17.3422 21.5218 17.0309L24.0294 15.7857C24.1879 14.8831 24.226 13.9634 24.1425 13.0508L21.7528 11.5927C21.6544 11.2725 21.5371 10.9583 21.4016 10.652ZM15.1813 17.8843C14.4069 18.1662 13.5663 18.2121 12.7659 18.0162C11.9654 17.8203 11.241 17.3915 10.6842 16.7839C10.1275 16.1763 9.7634 15.4173 9.63804 14.6028C9.51267 13.7883 9.63165 12.9549 9.97993 12.208C10.3282 11.4612 10.8901 10.8343 11.5947 10.4068C12.2992 9.97929 13.1147 9.77029 13.938 9.80624C14.7613 9.84219 15.5554 10.1215 16.22 10.6088C16.8846 11.096 17.3897 11.7695 17.6716 12.5439C18.0495 13.5823 17.9995 14.7283 17.5325 15.7299C17.0655 16.7314 16.2197 17.5064 15.1813 17.8843Z" fill="#CECBDE"/>
<path d="M12.0461 9.27052C11.1168 9.60875 10.3087 10.2149 9.72399 11.0124C9.13924 11.8099 8.80411 12.7629 8.76097 13.7509C8.71784 14.7389 8.96864 15.7174 9.48166 16.5628C9.99467 17.4083 10.7469 18.0826 11.6431 18.5005C12.5394 18.9185 13.5394 19.0612 14.5168 18.9108C15.4942 18.7604 16.4051 18.3235 17.1342 17.6554C17.8633 16.9873 18.3779 16.118 18.6129 15.1574C18.848 14.1968 18.7929 13.1882 18.4547 12.2589C18 11.0136 17.0699 9.99964 15.8684 9.4394C14.6669 8.87915 13.2923 8.81841 12.0461 9.27052ZM14.8963 17.1013C14.2768 17.3268 13.6043 17.3635 12.9639 17.2068C12.3236 17.0501 11.744 16.707 11.2986 16.221C10.8532 15.7349 10.562 15.1277 10.4617 14.4761C10.3614 13.8245 10.4566 13.1578 10.7352 12.5603C11.0138 11.9628 11.4634 11.4613 12.027 11.1193C12.5906 10.7773 13.243 10.6101 13.9016 10.6388C14.5603 10.6676 15.1956 10.891 15.7272 11.2808C16.2589 11.6707 16.663 12.2094 16.8885 12.8289C17.1909 13.6597 17.1509 14.5765 16.7772 15.3777C16.4036 16.1789 15.727 16.7989 14.8963 17.1013ZM22.447 11.0452C22.3996 10.9029 22.3483 10.7619 22.2931 10.6224L23.0895 8.26624C23.1312 8.14257 23.1432 8.01083 23.1247 7.88164C23.1062 7.75245 23.0576 7.62941 22.9828 7.52245C22.4155 6.70994 21.7429 5.97626 20.9826 5.3406C20.883 5.25747 20.7654 5.19873 20.6392 5.16906C20.5129 5.13939 20.3815 5.1396 20.2553 5.16967L17.8394 5.75633C17.7058 5.68969 17.5723 5.62743 17.4389 5.56956L16.3176 3.34162C16.2594 3.22558 16.1749 3.12474 16.0708 3.04715C15.9667 2.96955 15.846 2.91734 15.7181 2.89468C14.7427 2.72123 13.7485 2.67824 12.7618 2.76687C12.6318 2.77834 12.5063 2.82018 12.3954 2.88903C12.2845 2.95789 12.1914 3.05182 12.1234 3.16326L10.8325 5.27818C10.6915 5.32948 10.5506 5.38078 10.4096 5.43209L8.05454 4.63867C7.93087 4.59697 7.79913 4.58489 7.66994 4.60341C7.54075 4.62194 7.41771 4.67055 7.31075 4.74533C6.49824 5.31268 5.76456 5.98527 5.1289 6.74553C5.04577 6.8451 4.98703 6.96269 4.95736 7.08896C4.92768 7.21523 4.9279 7.34668 4.95797 7.47285L5.54606 9.89265C5.47965 10.0269 5.41739 10.1604 5.35929 10.2932L3.12885 11.4076C3.01281 11.4658 2.91198 11.5503 2.83438 11.6544C2.75678 11.7585 2.70457 11.8792 2.68191 12.007C2.50861 12.9826 2.4653 13.9768 2.55312 14.9638C2.56475 15.0938 2.60677 15.2193 2.6758 15.3301C2.74482 15.4409 2.83891 15.534 2.95049 15.6018L5.06541 16.8927C5.11671 17.0337 5.16802 17.1746 5.21932 17.3156L4.42591 19.6707C4.3842 19.7943 4.37212 19.9261 4.39064 20.0553C4.40917 20.1844 4.45778 20.3075 4.53256 20.4144C5.09991 21.227 5.77251 21.9606 6.53276 22.5963C6.63233 22.6794 6.74993 22.7382 6.87619 22.7678C7.00246 22.7975 7.13391 22.7973 7.26008 22.7672L9.67596 22.1806C9.81025 22.247 9.94376 22.3092 10.0765 22.3673L11.1949 24.5963C11.2531 24.7124 11.3376 24.8132 11.4416 24.8908C11.5457 24.9684 11.6665 25.0206 11.7943 25.0433C12.7698 25.2166 13.7641 25.2599 14.751 25.1721C14.8811 25.1604 15.0065 25.1184 15.1174 25.0494C15.2282 24.9804 15.3212 24.8863 15.389 24.7747L16.68 22.6598C16.8223 22.6124 16.9633 22.5611 17.1028 22.5059L19.459 23.3022C19.5826 23.3439 19.7144 23.356 19.8436 23.3375C19.9727 23.319 20.0958 23.2704 20.2027 23.1956C21.0156 22.6286 21.7493 21.956 22.3846 21.1954C22.4677 21.0958 22.5265 20.9782 22.5561 20.8519C22.5858 20.7257 22.5856 20.5942 22.5555 20.4681L21.9689 18.0522C22.0355 17.9185 22.0978 17.785 22.1556 17.6516L24.3836 16.5303C24.4996 16.4721 24.6005 16.3876 24.678 16.2836C24.7556 16.1795 24.8079 16.0587 24.8305 15.9309C25.0038 14.9553 25.0471 13.9611 24.9593 12.9742C24.9477 12.8441 24.9057 12.7187 24.8366 12.6078C24.7676 12.497 24.6735 12.404 24.5619 12.3362L22.447 11.0452ZM20.6395 10.9826C20.7591 11.2595 20.8624 11.5432 20.9487 11.8322C21.0076 12.0302 21.1379 12.1993 21.3143 12.3066L23.3349 13.5366C23.3599 14.1011 23.3347 14.6667 23.2595 15.2268L21.1385 16.2826C20.9537 16.3741 20.8093 16.5309 20.7334 16.7227C20.6221 17.0032 20.4945 17.2769 20.3511 17.5424C20.253 17.7239 20.2257 17.9353 20.2744 18.1357L20.8332 20.4354C20.4526 20.853 20.0355 21.236 19.5869 21.5796L17.3448 20.8226C17.1655 20.7622 16.9709 20.7646 16.7931 20.8295L16.7461 20.8466C16.4692 20.9662 16.1855 21.0695 15.8965 21.1558C15.6988 21.2152 15.5299 21.3453 15.422 21.5214L14.1876 23.5448C13.623 23.5698 13.0574 23.5445 12.4973 23.4694L11.4426 21.3513C11.3511 21.1664 11.1943 21.0221 11.0025 20.9462C10.722 20.8349 10.4483 20.7072 10.1828 20.5639C10.0013 20.4658 9.78993 20.4384 9.58949 20.4872L7.28948 21.045C6.87181 20.6643 6.48888 20.2473 6.14525 19.7987L6.90221 17.5566C6.96834 17.361 6.95947 17.1477 6.87729 16.9582C6.75766 16.6813 6.6544 16.3976 6.56805 16.1086C6.5092 15.9106 6.37892 15.7416 6.20249 15.6342L4.18042 14.4003C4.15544 13.8358 4.18068 13.2702 4.25583 12.7101L6.37388 11.6554C6.55875 11.5639 6.70311 11.4071 6.77904 11.2153C6.89033 10.9348 7.01797 10.6611 7.1613 10.3955C7.25996 10.2138 7.28753 10.0019 7.23864 9.80093L6.68023 7.50225C7.06085 7.08458 7.47794 6.70165 7.92654 6.35802L10.1686 7.11498C10.3642 7.18111 10.5775 7.17223 10.767 7.09006C11.0439 6.97043 11.3276 6.86717 11.6166 6.78082C11.8143 6.72143 11.9832 6.59129 12.091 6.41526L13.3249 4.39318C13.8894 4.36821 14.455 4.39344 15.0151 4.4686L16.0698 6.58665C16.1613 6.77152 16.3181 6.91588 16.5099 6.99181C16.7904 7.1031 17.0641 7.23074 17.3297 7.37407C17.5111 7.47218 17.7225 7.49952 17.9229 7.45078L20.2226 6.89202C20.6403 7.27264 21.0232 7.68973 21.3668 8.13833L20.6099 10.3804C20.543 10.5777 20.5525 10.793 20.6366 10.9836L20.6395 10.9826Z" fill="#706D7E"/>
</svg>
