<svg viewBox="0 0 28 28" fill="none" xmlns="http://www.w3.org/2000/svg">
<path opacity="0.2" d="M18.7368 3.288L24.7221 19.7326C24.7977 19.9403 24.7877 20.1695 24.6943 20.3698C24.6009 20.5701 24.4318 20.7251 24.2241 20.8007L10.1287 25.931C9.921 26.0066 9.69179 25.9966 9.49149 25.9032C9.29118 25.8098 9.13618 25.6406 9.06059 25.433L3.07524 8.98834C2.99965 8.78065 3.00966 8.55145 3.10306 8.35114C3.19646 8.15083 3.36561 7.99584 3.5733 7.92024L7.48869 6.49516C7.22577 7.35773 7.25104 8.28248 7.56066 9.12941L7.84568 9.91249L15.6764 7.06232L15.3914 6.27924C15.0842 5.43143 14.5092 4.7068 13.7533 4.21503L17.6687 2.78994C17.8764 2.71435 18.1056 2.72436 18.3059 2.81776C18.5062 2.91117 18.6612 3.08032 18.7368 3.288Z" fill="#CECBDE"/>
<path d="M18.5266 14.8931C18.6022 15.1008 18.5922 15.33 18.4988 15.5303C18.4054 15.7306 18.2363 15.8856 18.0286 15.9612L11.764 18.2414C11.5563 18.317 11.3271 18.307 11.1268 18.2135C10.9264 18.1201 10.7714 17.951 10.6959 17.7433C10.6203 17.5356 10.6303 17.3064 10.7237 17.1061C10.8171 16.9058 10.9862 16.7508 11.1939 16.6752L17.4585 14.3951C17.6662 14.3195 17.8954 14.3295 18.0957 14.4229C18.296 14.5163 18.451 14.6855 18.5266 14.8931ZM16.3185 11.2628L10.0539 13.5429C9.84617 13.6185 9.67702 13.7735 9.58361 13.9738C9.49021 14.1741 9.4802 14.4033 9.55579 14.611C9.63138 14.8187 9.78638 14.9878 9.98669 15.0812C10.187 15.1746 10.4162 15.1846 10.6239 15.1091L16.8885 12.8289C17.0962 12.7533 17.2653 12.5983 17.3587 12.398C17.4521 12.1977 17.4622 11.9685 17.3866 11.7608C17.311 11.5531 17.156 11.384 16.9557 11.2906C16.7554 11.1972 16.5262 11.1872 16.3185 11.2628ZM19.5199 3.00303L25.5052 19.4477C25.6564 19.863 25.6364 20.3214 25.4496 20.7221C25.2628 21.1227 24.9245 21.4327 24.5091 21.5838L10.4137 26.7141C9.99835 26.8653 9.53993 26.8453 9.13932 26.6585C8.73871 26.4717 8.42871 26.1334 8.27753 25.718L2.29218 9.2734C2.14099 8.85803 2.16101 8.39962 2.34782 7.99901C2.53463 7.59839 2.87293 7.2884 3.2883 7.13721L6.83759 5.84538C7.09829 5.1926 7.49391 4.60224 7.99855 4.11295C8.5032 3.62366 9.10549 3.24646 9.76601 3.00605C10.4265 2.76564 11.1304 2.66745 11.8315 2.71789C12.5326 2.76833 13.2151 2.96627 13.8344 3.29875L17.3837 2.00691C17.7991 1.85573 18.2575 1.87575 18.6581 2.06255C19.0587 2.24936 19.3687 2.58766 19.5199 3.00303ZM8.34375 8.84444L14.6084 6.56431C14.306 5.73357 13.686 5.05696 12.8848 4.68335C12.0836 4.30973 11.1667 4.2697 10.336 4.57206C9.50525 4.87443 8.82865 5.49442 8.45503 6.29564C8.08142 7.09687 8.04139 8.0137 8.34375 8.84444ZM17.9537 3.57307L15.3353 4.52609C15.6965 4.9642 15.9803 5.46072 16.1745 5.99427L16.4595 6.77735C16.5351 6.98503 16.5251 7.21424 16.4317 7.41455C16.3383 7.61485 16.1692 7.76985 15.9615 7.84544L8.13071 10.6956C7.92302 10.7712 7.69381 10.7612 7.49351 10.6678C7.2932 10.5744 7.1382 10.4052 7.06261 10.1976L6.7776 9.41447C6.58341 8.88091 6.48167 8.31813 6.47674 7.75034L3.85833 8.70337L9.84368 25.148L23.9391 20.0177L17.9537 3.57307Z" fill="#706D7E"/>
</svg>