<svg viewBox="0 0 28 28" fill="none" xmlns="http://www.w3.org/2000/svg">
<g clip-path="url(#clip0_5_5621)">
<path opacity="0.2" d="M18.2416 14.1101C18.5235 14.8844 18.5694 15.725 18.3735 16.5255C18.1776 17.326 17.7488 18.0504 17.1412 18.6071C16.5336 19.1639 15.7746 19.5279 14.9601 19.6533C14.1456 19.7787 13.3122 19.6597 12.5653 19.3114C11.8185 18.9631 11.1916 18.4012 10.7641 17.6967C10.3366 16.9922 10.1276 16.1767 10.1635 15.3534C10.1995 14.5301 10.4788 13.7359 10.9661 13.0713C11.4533 12.4068 12.1268 11.9016 12.9012 11.6198C13.9396 11.2418 15.0856 11.2918 16.0871 11.7589C17.0887 12.2259 17.8637 13.0716 18.2416 14.1101ZM4.92644 9.20142C4.30693 9.42691 3.76819 9.83104 3.37836 10.3627C2.98852 10.8944 2.7651 11.5297 2.73634 12.1883C2.70759 12.847 2.87479 13.4994 3.2168 14.063C3.55881 14.6266 4.06028 15.0761 4.65778 15.3548C5.25528 15.6334 5.92199 15.7286 6.57358 15.6283C7.22518 15.528 7.83241 15.2367 8.31847 14.7913C8.80454 14.3459 9.14761 13.7664 9.30431 13.126C9.46101 12.4856 9.4243 11.8132 9.19881 11.1937C8.89645 10.3629 8.27646 9.68632 7.47523 9.31271C6.67401 8.93909 5.75718 8.89906 4.92644 9.20142ZM17.4557 4.64116C16.8362 4.86664 16.2974 5.27077 15.9076 5.80243C15.5178 6.3341 15.2943 6.96942 15.2656 7.62807C15.2368 8.28671 15.404 8.93909 15.746 9.50271C16.088 10.0663 16.5895 10.5159 17.187 10.7945C17.7845 11.0731 18.4512 11.1683 19.1028 11.068C19.7544 10.9677 20.3616 10.6765 20.8477 10.2311C21.3338 9.78566 21.6768 9.20613 21.8335 8.56575C21.9902 7.92537 21.9535 7.25291 21.728 6.6334C21.4257 5.80266 20.8057 5.12606 20.0045 4.75244C19.2032 4.37882 18.2864 4.33879 17.4557 4.64116Z" fill="#CECBDE"/>
<path d="M25.9871 12.0004C25.9273 12.092 25.8501 12.171 25.7597 12.2328C25.6694 12.2945 25.5678 12.3379 25.4607 12.3604C25.3536 12.3829 25.2431 12.3841 25.1356 12.3639C25.028 12.3438 24.9255 12.3026 24.8338 12.2428C24.1309 11.7801 23.3292 11.489 22.4933 11.3928C21.6573 11.2966 20.8104 11.398 20.0208 11.6889C19.8131 11.7645 19.5839 11.7544 19.3836 11.661C19.1833 11.5676 19.0283 11.3985 18.9527 11.1908C18.8771 10.9831 18.8871 10.7539 18.9805 10.5536C19.0739 10.3533 19.2431 10.1983 19.4507 10.1227C19.8901 9.96275 20.2758 9.68278 20.564 9.31461C20.8523 8.94643 21.0315 8.5048 21.0813 8.03989C21.1311 7.57497 21.0495 7.10541 20.8458 6.68453C20.6422 6.26365 20.3245 5.90832 19.929 5.65891C19.5335 5.4095 19.076 5.276 18.6084 5.27358C18.1409 5.27116 17.682 5.39992 17.2839 5.64522C16.8859 5.89052 16.5646 6.24254 16.3565 6.66129C16.1485 7.08004 16.0621 7.54874 16.1071 8.01414C16.1176 8.12312 16.1066 8.23311 16.0747 8.33783C16.0427 8.44255 15.9904 8.53995 15.9208 8.62447C15.8512 8.70899 15.7657 8.77898 15.669 8.83043C15.5724 8.88188 15.4666 8.91379 15.3576 8.92434C15.2486 8.93489 15.1386 8.92388 15.0339 8.89192C14.9292 8.85996 14.8318 8.80769 14.7472 8.73809C14.6627 8.66849 14.5927 8.58293 14.5413 8.48628C14.4898 8.38964 14.4579 8.2838 14.4474 8.17482C14.3851 7.52939 14.4744 6.87834 14.708 6.27347C14.9416 5.6686 15.3132 5.12661 15.7932 4.69061C16.2731 4.25462 16.8482 3.93666 17.4727 3.76203C18.0972 3.58741 18.7538 3.56094 19.3903 3.68473C20.0268 3.80853 20.6256 4.07916 21.1391 4.47511C21.6526 4.87106 22.0666 5.38138 22.3481 5.96549C22.6297 6.54959 22.7711 7.19135 22.761 7.83969C22.7508 8.48804 22.5896 9.12508 22.2899 9.70012C23.5225 9.7736 24.7145 10.1683 25.7473 10.845C25.839 10.905 25.918 10.9826 25.9797 11.0731C26.0414 11.1637 26.0847 11.2656 26.1069 11.3729C26.1292 11.4803 26.1301 11.5909 26.1095 11.6986C26.089 11.8062 26.0474 11.9088 25.9871 12.0004ZM22.9077 19.9496C22.9949 20.0189 23.0672 20.1049 23.1206 20.2025C23.1739 20.3002 23.2071 20.4076 23.2183 20.5183C23.2295 20.629 23.2184 20.7408 23.1857 20.8472C23.1529 20.9536 23.0992 21.0523 23.0277 21.1375C22.9562 21.2228 22.8683 21.2929 22.7693 21.3436C22.6702 21.3944 22.562 21.4248 22.4511 21.433C22.3401 21.4413 22.2286 21.4273 22.1231 21.3917C22.0177 21.3562 21.9204 21.2999 21.8371 21.2262C21.0398 20.5707 20.0854 20.1343 19.068 19.9602C18.0507 19.7861 17.0055 19.8802 16.0356 20.2332C15.0657 20.5862 14.2046 21.186 13.5372 21.9733C12.8697 22.7606 12.4191 23.7083 12.2297 24.723C12.2148 24.8344 12.1775 24.9416 12.1201 25.0382C12.0627 25.1348 11.9863 25.2188 11.8956 25.2852C11.8049 25.3515 11.7017 25.3988 11.5922 25.4243C11.4827 25.4497 11.3692 25.4527 11.2586 25.4331C11.1479 25.4136 11.0423 25.3718 10.9482 25.3104C10.8541 25.2489 10.7734 25.1691 10.7109 25.0757C10.6484 24.9822 10.6055 24.8771 10.5847 24.7667C10.564 24.6562 10.5657 24.5427 10.5899 24.433C10.8744 22.8522 11.6583 21.4044 12.8266 20.3022C11.8295 19.989 10.9556 19.3711 10.3277 18.5356C9.69988 17.7 9.34966 16.6887 9.32631 15.6437C9.30295 14.5988 9.60763 13.5729 10.1975 12.7101C10.7874 11.8473 11.6328 11.191 12.615 10.8336C13.5971 10.4761 14.6666 10.4354 15.673 10.7171C16.6795 10.9989 17.5724 11.589 18.2261 12.4045C18.8799 13.2199 19.2617 14.2198 19.3178 15.2634C19.374 16.3071 19.1017 17.3421 18.5392 18.223C20.1426 18.3163 21.6738 18.9215 22.9077 19.9496ZM15.4663 18.6675C16.0858 18.442 16.6245 18.0378 17.0143 17.5062C17.4042 16.9745 17.6276 16.3392 17.6564 15.6805C17.6851 15.0219 17.5179 14.3695 17.1759 13.8059C16.8339 13.2423 16.3324 12.7927 15.7349 12.5141C15.1374 12.2355 14.4707 12.1403 13.8191 12.2406C13.1675 12.3409 12.5603 12.6322 12.0742 13.0776C11.5882 13.523 11.2451 14.1025 11.0884 14.7429C10.9317 15.3832 10.9684 16.0557 11.1939 16.6752C11.4963 17.506 12.1162 18.1826 12.9175 18.5562C13.7187 18.9298 14.6355 18.9698 15.4663 18.6675ZM7.98961 15.181C7.91402 14.9734 7.75902 14.8042 7.55871 14.7108C7.35841 14.6174 7.1292 14.6074 6.92151 14.683C6.48212 14.8429 6.0067 14.8763 5.54925 14.7795C5.0918 14.6828 4.67066 14.4596 4.33366 14.1355C3.99666 13.8114 3.75731 13.3993 3.6428 12.9459C3.52829 12.4926 3.54321 12.0162 3.68586 11.5709C3.82852 11.1257 4.09319 10.7293 4.44981 10.4269C4.80643 10.1245 5.24071 9.92817 5.70332 9.86021C6.16593 9.79226 6.63833 9.8554 7.06686 10.0425C7.49538 10.2295 7.86285 10.533 8.12754 10.9185C8.25269 11.1008 8.44513 11.2259 8.66253 11.2663C8.87993 11.3067 9.10448 11.2591 9.28677 11.1339C9.46907 11.0088 9.59418 10.8163 9.63459 10.5989C9.675 10.3815 9.62739 10.157 9.50225 9.9747C9.13506 9.44026 8.64822 8.99889 8.08044 8.6857C7.51266 8.37252 6.87963 8.19618 6.2317 8.1707C5.58378 8.14522 4.93885 8.27131 4.34823 8.53895C3.75762 8.80658 3.23761 9.20836 2.8296 9.71232C2.42159 10.2163 2.13683 10.8085 1.99797 11.4419C1.85912 12.0753 1.87001 12.7323 2.02977 13.3608C2.18954 13.9892 2.49377 14.5717 2.91826 15.0618C3.34274 15.552 3.87577 15.9363 4.47494 16.1843C3.57917 17.0329 2.92085 18.101 2.56529 19.2826C2.50102 19.4941 2.52343 19.7225 2.62757 19.9176C2.73171 20.1126 2.90907 20.2583 3.12062 20.3225C3.33217 20.3868 3.56058 20.3644 3.75562 20.2603C3.95065 20.1561 4.09632 19.9788 4.16059 19.7672C4.40166 18.961 4.82866 18.2226 5.40721 17.6116C5.98576 17.0005 6.6997 16.5339 7.49155 16.2491C7.69923 16.1735 7.86838 16.0185 7.96179 15.8182C8.05519 15.6179 8.0652 15.3887 7.98961 15.181Z" fill="#706D7E"/>
</g>
<defs>
<clipPath id="clip0_5_5621">
<rect width="26.6667" height="26.6667" fill="white" transform="translate(0.666687 0.666687)"/>
</clipPath>
</defs>
</svg>
